<svg width="32" height="32" xmlns="http://www.w3.org/2000/svg">

 <title/>
 <g>
  <title>background</title>
  <rect fill="none" id="canvas_background" height="402" width="582" y="-1" x="-1"/>
 </g>
 <g>
  <title>Layer 1</title>
  <line stroke-width="2px" stroke-linejoin="round" stroke-linecap="round" stroke="#474747" fill="none" id="svg_1" y2="16" y1="16" x2="28.92" x1="15.92" class="cls-1"/>
  <path fill="#474747" id="svg_2" d="m23.93,25l0,3l-16,0l0,-24l16,0l0,3l2,0l0,-4a1,1 0 0 0 -1,-1l-18,0a1,1 0 0 0 -1,1l0,26a1,1 0 0 0 1,1l18,0a1,1 0 0 0 1,-1l0,-4l-2,0z"/>
  <line stroke-width="2px" stroke-linejoin="round" stroke-linecap="round" stroke="#474747" fill="none" id="svg_3" y2="20" y1="16" x2="24.92" x1="28.92" class="cls-1"/>
  <line stroke-width="2px" stroke-linejoin="round" stroke-linecap="round" stroke="#474747" fill="none" id="svg_4" y2="12" y1="16" x2="24.92" x1="28.92" class="cls-1"/>
  <line stroke-width="2px" stroke-linejoin="round" stroke-linecap="round" stroke="#474747" fill="none" id="svg_5" y2="6.09" y1="8.09" x2="24.92" x1="24.92" class="cls-1"/>
  <line stroke-width="2px" stroke-linejoin="round" stroke-linecap="round" stroke="#474747" fill="none" id="svg_6" y2="24" y1="26" x2="24.92" x1="24.92" class="cls-1"/>
 </g>
</svg>